%TF.GenerationSoftware,KiCad,Pcbnew,9.0.2+dfsg-1*%
%TF.CreationDate,2025-09-24T02:43:49+02:00*%
%TF.ProjectId,homebrew_486,686f6d65-6272-4657-975f-3438362e6b69,rev?*%
%TF.SameCoordinates,Original*%
%TF.FileFunction,Soldermask,Bot*%
%TF.FilePolarity,Negative*%
%FSLAX46Y46*%
G04 Gerber Fmt 4.6, Leading zero omitted, Abs format (unit mm)*
G04 Created by KiCad (PCBNEW 9.0.2+dfsg-1) date 2025-09-24 02:43:49*
%MOMM*%
%LPD*%
G01*
G04 APERTURE LIST*
G04 Aperture macros list*
%AMRoundRect*
0 Rectangle with rounded corners*
0 $1 Rounding radius*
0 $2 $3 $4 $5 $6 $7 $8 $9 X,Y pos of 4 corners*
0 Add a 4 corners polygon primitive as box body*
4,1,4,$2,$3,$4,$5,$6,$7,$8,$9,$2,$3,0*
0 Add four circle primitives for the rounded corners*
1,1,$1+$1,$2,$3*
1,1,$1+$1,$4,$5*
1,1,$1+$1,$6,$7*
1,1,$1+$1,$8,$9*
0 Add four rect primitives between the rounded corners*
20,1,$1+$1,$2,$3,$4,$5,0*
20,1,$1+$1,$4,$5,$6,$7,0*
20,1,$1+$1,$6,$7,$8,$9,0*
20,1,$1+$1,$8,$9,$2,$3,0*%
G04 Aperture macros list end*
%ADD10R,1.600000X1.600000*%
%ADD11C,1.600000*%
%ADD12O,2.000000X3.500000*%
%ADD13O,4.000000X2.000000*%
%ADD14C,4.000000*%
%ADD15RoundRect,0.250000X-0.550000X-0.550000X0.550000X-0.550000X0.550000X0.550000X-0.550000X0.550000X0*%
%ADD16R,1.700000X1.700000*%
%ADD17C,1.700000*%
%ADD18C,1.524000*%
%ADD19C,1.500000*%
%ADD20RoundRect,0.250000X0.550000X0.550000X-0.550000X0.550000X-0.550000X-0.550000X0.550000X-0.550000X0*%
%ADD21RoundRect,0.250001X1.399999X-1.099999X1.399999X1.099999X-1.399999X1.099999X-1.399999X-1.099999X0*%
%ADD22O,3.300000X2.700000*%
%ADD23RoundRect,0.250000X0.550000X-0.550000X0.550000X0.550000X-0.550000X0.550000X-0.550000X-0.550000X0*%
%ADD24R,1.800000X1.800000*%
%ADD25C,1.800000*%
%ADD26R,1.422400X1.422400*%
%ADD27C,1.422400*%
%ADD28C,2.000000*%
%ADD29RoundRect,0.250000X0.475000X-0.337500X0.475000X0.337500X-0.475000X0.337500X-0.475000X-0.337500X0*%
%ADD30RoundRect,0.250000X-0.450000X0.350000X-0.450000X-0.350000X0.450000X-0.350000X0.450000X0.350000X0*%
%ADD31RoundRect,0.250000X-0.350000X-0.450000X0.350000X-0.450000X0.350000X0.450000X-0.350000X0.450000X0*%
%ADD32RoundRect,0.250000X-0.337500X-0.475000X0.337500X-0.475000X0.337500X0.475000X-0.337500X0.475000X0*%
%ADD33RoundRect,0.250000X-0.475000X0.337500X-0.475000X-0.337500X0.475000X-0.337500X0.475000X0.337500X0*%
%ADD34RoundRect,0.250000X0.337500X0.475000X-0.337500X0.475000X-0.337500X-0.475000X0.337500X-0.475000X0*%
%ADD35RoundRect,0.250000X0.450000X-0.350000X0.450000X0.350000X-0.450000X0.350000X-0.450000X-0.350000X0*%
%ADD36RoundRect,0.250000X0.350000X0.450000X-0.350000X0.450000X-0.350000X-0.450000X0.350000X-0.450000X0*%
G04 APERTURE END LIST*
D10*
%TO.C,J13*%
X112873000Y-31971000D03*
D11*
X115473000Y-31971000D03*
X110773000Y-31971000D03*
X117573000Y-31971000D03*
X110773000Y-34771000D03*
X117573000Y-34771000D03*
D12*
X121023000Y-29121000D03*
D13*
X114173000Y-28321000D03*
D12*
X107323000Y-29121000D03*
%TD*%
D14*
%TO.C,H1*%
X38354000Y-27432000D03*
%TD*%
D15*
%TO.C,C1*%
X165609388Y-137668000D03*
D11*
X168109388Y-137668000D03*
%TD*%
D10*
%TO.C,Y2*%
X78994000Y-166116000D03*
D11*
X94234000Y-166116000D03*
X94234000Y-158496000D03*
X78994000Y-158496000D03*
%TD*%
D16*
%TO.C,J12*%
X64638000Y-154813000D03*
D17*
X67178000Y-154813000D03*
%TD*%
D18*
%TO.C,J2*%
X46228000Y-32004000D03*
X46228000Y-34544000D03*
X46228000Y-37084000D03*
X46228000Y-39624000D03*
X46228000Y-42164000D03*
X46228000Y-44704000D03*
X46228000Y-47244000D03*
X46228000Y-49784000D03*
X46228000Y-52324000D03*
X46228000Y-54864000D03*
X46228000Y-57404000D03*
X46228000Y-59944000D03*
X46228000Y-62484000D03*
X46228000Y-65024000D03*
X46228000Y-67564000D03*
X46228000Y-70104000D03*
X46228000Y-72644000D03*
X46228000Y-75184000D03*
X46228000Y-77724000D03*
X46228000Y-80264000D03*
X46228000Y-82804000D03*
X46228000Y-85344000D03*
X46228000Y-87884000D03*
X46228000Y-90424000D03*
X46228000Y-92964000D03*
X46228000Y-95504000D03*
X46228000Y-98044000D03*
X46228000Y-100584000D03*
X46228000Y-103124000D03*
X46228000Y-105664000D03*
X46228000Y-108204000D03*
X51308000Y-32004000D03*
X51308000Y-34544000D03*
X51308000Y-37084000D03*
X51308000Y-39624000D03*
X51308000Y-42164000D03*
X51308000Y-44704000D03*
X51308000Y-47244000D03*
X51308000Y-49784000D03*
X51308000Y-52324000D03*
X51308000Y-54864000D03*
X51308000Y-57404000D03*
X51308000Y-59944000D03*
X51308000Y-62484000D03*
X51308000Y-65024000D03*
X51308000Y-67564000D03*
X51308000Y-70104000D03*
X51308000Y-72644000D03*
X51308000Y-75184000D03*
X51308000Y-77724000D03*
X51308000Y-80264000D03*
X51308000Y-82804000D03*
X51308000Y-85344000D03*
X51308000Y-87884000D03*
X51308000Y-90424000D03*
X51308000Y-92964000D03*
X51308000Y-95504000D03*
X51308000Y-98044000D03*
X51308000Y-100584000D03*
X51308000Y-103124000D03*
X51308000Y-105664000D03*
X51308000Y-108204000D03*
X46228000Y-118364000D03*
X46228000Y-120904000D03*
X46228000Y-123444000D03*
X46228000Y-125984000D03*
X46228000Y-128524000D03*
X46228000Y-131064000D03*
X46228000Y-133604000D03*
X46228000Y-136144000D03*
X46228000Y-138684000D03*
X46228000Y-141224000D03*
X46228000Y-143764000D03*
X46228000Y-146304000D03*
X46228000Y-148844000D03*
X46228000Y-151384000D03*
X46228000Y-153924000D03*
X46228000Y-156464000D03*
X46228000Y-159004000D03*
X46228000Y-161544000D03*
X51308000Y-118364000D03*
X51308000Y-120904000D03*
X51308000Y-123444000D03*
X51308000Y-125984000D03*
X51308000Y-128524000D03*
X51308000Y-131064000D03*
X51308000Y-133604000D03*
X51308000Y-136144000D03*
X51308000Y-138684000D03*
X51308000Y-141224000D03*
X51308000Y-143764000D03*
X51308000Y-146304000D03*
X51308000Y-148844000D03*
X51308000Y-151384000D03*
X51308000Y-153924000D03*
X51308000Y-156464000D03*
X51308000Y-159004000D03*
X51308000Y-161544000D03*
%TD*%
D16*
%TO.C,J15*%
X134493000Y-159321500D03*
D17*
X137033000Y-159321500D03*
X139573000Y-159321500D03*
X142113000Y-159321500D03*
%TD*%
D14*
%TO.C,H2*%
X38354000Y-166116000D03*
%TD*%
D16*
%TO.C,J11*%
X99060000Y-163068000D03*
%TD*%
%TO.C,J17*%
X165354000Y-34417000D03*
D17*
X165354000Y-36957000D03*
X165354000Y-39497000D03*
X165354000Y-42037000D03*
X165354000Y-44577000D03*
X165354000Y-47117000D03*
%TD*%
D19*
%TO.C,Y3*%
X107505500Y-156019500D03*
X102625500Y-156019500D03*
%TD*%
D16*
%TO.C,J21*%
X167132000Y-156591000D03*
D17*
X167132000Y-159131000D03*
%TD*%
D16*
%TO.C,J6*%
X92456000Y-141727000D03*
D17*
X92456000Y-144267000D03*
%TD*%
D16*
%TO.C,J9*%
X124714000Y-134937500D03*
D17*
X122174000Y-134937500D03*
X119634000Y-134937500D03*
%TD*%
D16*
%TO.C,J10*%
X39497000Y-86487000D03*
D17*
X39497000Y-83947000D03*
X39497000Y-81407000D03*
X39497000Y-78867000D03*
X39497000Y-76327000D03*
X39497000Y-73787000D03*
X39497000Y-71247000D03*
X39497000Y-68707000D03*
X39497000Y-66167000D03*
X39497000Y-63627000D03*
%TD*%
D20*
%TO.C,C37*%
X39559113Y-54864000D03*
D11*
X37059113Y-54864000D03*
%TD*%
D16*
%TO.C,J22*%
X25146000Y-169735500D03*
D17*
X27686000Y-169735500D03*
%TD*%
D15*
%TO.C,C2*%
X165608000Y-130048000D03*
D11*
X168108000Y-130048000D03*
%TD*%
D16*
%TO.C,J16*%
X46164500Y-169418000D03*
D17*
X48704500Y-169418000D03*
X51244500Y-169418000D03*
%TD*%
D16*
%TO.C,J8*%
X129830000Y-141732000D03*
D17*
X129830000Y-144272000D03*
%TD*%
D18*
%TO.C,J1*%
X25400000Y-32004000D03*
X25400000Y-34544000D03*
X25400000Y-37084000D03*
X25400000Y-39624000D03*
X25400000Y-42164000D03*
X25400000Y-44704000D03*
X25400000Y-47244000D03*
X25400000Y-49784000D03*
X25400000Y-52324000D03*
X25400000Y-54864000D03*
X25400000Y-57404000D03*
X25400000Y-59944000D03*
X25400000Y-62484000D03*
X25400000Y-65024000D03*
X25400000Y-67564000D03*
X25400000Y-70104000D03*
X25400000Y-72644000D03*
X25400000Y-75184000D03*
X25400000Y-77724000D03*
X25400000Y-80264000D03*
X25400000Y-82804000D03*
X25400000Y-85344000D03*
X25400000Y-87884000D03*
X25400000Y-90424000D03*
X25400000Y-92964000D03*
X25400000Y-95504000D03*
X25400000Y-98044000D03*
X25400000Y-100584000D03*
X25400000Y-103124000D03*
X25400000Y-105664000D03*
X25400000Y-108204000D03*
X30480000Y-32004000D03*
X30480000Y-34544000D03*
X30480000Y-37084000D03*
X30480000Y-39624000D03*
X30480000Y-42164000D03*
X30480000Y-44704000D03*
X30480000Y-47244000D03*
X30480000Y-49784000D03*
X30480000Y-52324000D03*
X30480000Y-54864000D03*
X30480000Y-57404000D03*
X30480000Y-59944000D03*
X30480000Y-62484000D03*
X30480000Y-65024000D03*
X30480000Y-67564000D03*
X30480000Y-70104000D03*
X30480000Y-72644000D03*
X30480000Y-75184000D03*
X30480000Y-77724000D03*
X30480000Y-80264000D03*
X30480000Y-82804000D03*
X30480000Y-85344000D03*
X30480000Y-87884000D03*
X30480000Y-90424000D03*
X30480000Y-92964000D03*
X30480000Y-95504000D03*
X30480000Y-98044000D03*
X30480000Y-100584000D03*
X30480000Y-103124000D03*
X30480000Y-105664000D03*
X30480000Y-108204000D03*
X25400000Y-118364000D03*
X25400000Y-120904000D03*
X25400000Y-123444000D03*
X25400000Y-125984000D03*
X25400000Y-128524000D03*
X25400000Y-131064000D03*
X25400000Y-133604000D03*
X25400000Y-136144000D03*
X25400000Y-138684000D03*
X25400000Y-141224000D03*
X25400000Y-143764000D03*
X25400000Y-146304000D03*
X25400000Y-148844000D03*
X25400000Y-151384000D03*
X25400000Y-153924000D03*
X25400000Y-156464000D03*
X25400000Y-159004000D03*
X25400000Y-161544000D03*
X30480000Y-118364000D03*
X30480000Y-120904000D03*
X30480000Y-123444000D03*
X30480000Y-125984000D03*
X30480000Y-128524000D03*
X30480000Y-131064000D03*
X30480000Y-133604000D03*
X30480000Y-136144000D03*
X30480000Y-138684000D03*
X30480000Y-141224000D03*
X30480000Y-143764000D03*
X30480000Y-146304000D03*
X30480000Y-148844000D03*
X30480000Y-151384000D03*
X30480000Y-153924000D03*
X30480000Y-156464000D03*
X30480000Y-159004000D03*
X30480000Y-161544000D03*
%TD*%
D16*
%TO.C,J20*%
X168973500Y-33713500D03*
D17*
X168973500Y-36253500D03*
%TD*%
D16*
%TO.C,J19*%
X24130000Y-25400000D03*
D17*
X26670000Y-25400000D03*
%TD*%
D21*
%TO.C,J3*%
X153504000Y-167912000D03*
D22*
X153504000Y-163712000D03*
X153504000Y-159512000D03*
X153504000Y-155312000D03*
X153504000Y-151112000D03*
X153504000Y-146912000D03*
X153504000Y-142712000D03*
X153504000Y-138512000D03*
X153504000Y-134312000D03*
X153504000Y-130112000D03*
X159004000Y-167912000D03*
X159004000Y-163712000D03*
X159004000Y-159512000D03*
X159004000Y-155312000D03*
X159004000Y-151112000D03*
X159004000Y-146912000D03*
X159004000Y-142712000D03*
X159004000Y-138512000D03*
X159004000Y-134312000D03*
X159004000Y-130112000D03*
%TD*%
D23*
%TO.C,C36*%
X39370000Y-112736000D03*
D11*
X39370000Y-110236000D03*
%TD*%
D24*
%TO.C,D1*%
X137922000Y-166243000D03*
D25*
X140462000Y-166243000D03*
%TD*%
D26*
%TO.C,U10*%
X72136000Y-48514000D03*
D27*
X69596000Y-45974000D03*
X69596000Y-48514000D03*
X67056000Y-45974000D03*
X64516000Y-48514000D03*
X67056000Y-48514000D03*
X64516000Y-51054000D03*
X67056000Y-51054000D03*
X64516000Y-53594000D03*
X67056000Y-53594000D03*
X64516000Y-56134000D03*
X67056000Y-58674000D03*
X67056000Y-56134000D03*
X69596000Y-58674000D03*
X69596000Y-56134000D03*
X72136000Y-58674000D03*
X72136000Y-56134000D03*
X74676000Y-58674000D03*
X77216000Y-56134000D03*
X74676000Y-56134000D03*
X77216000Y-53594000D03*
X74676000Y-53594000D03*
X77216000Y-51054000D03*
X74676000Y-51054000D03*
X77216000Y-48514000D03*
X74676000Y-45974000D03*
X74676000Y-48514000D03*
X72136000Y-45974000D03*
%TD*%
D23*
%TO.C,U9*%
X85598000Y-60198000D03*
D11*
X88138000Y-60198000D03*
X90678000Y-60198000D03*
X93218000Y-60198000D03*
X95758000Y-60198000D03*
X98298000Y-60198000D03*
X100838000Y-60198000D03*
X103378000Y-60198000D03*
X105918000Y-60198000D03*
X108458000Y-60198000D03*
X110998000Y-60198000D03*
X113538000Y-60198000D03*
X113538000Y-44958000D03*
X110998000Y-44958000D03*
X108458000Y-44958000D03*
X105918000Y-44958000D03*
X103378000Y-44958000D03*
X100838000Y-44958000D03*
X98298000Y-44958000D03*
X95758000Y-44958000D03*
X93218000Y-44958000D03*
X90678000Y-44958000D03*
X88138000Y-44958000D03*
X85598000Y-44958000D03*
%TD*%
D16*
%TO.C,J18*%
X126301500Y-159321500D03*
D17*
X128841500Y-159321500D03*
%TD*%
D14*
%TO.C,H4*%
X167132000Y-166624000D03*
%TD*%
D23*
%TO.C,U21*%
X58737500Y-39941500D03*
D11*
X61277500Y-39941500D03*
X63817500Y-39941500D03*
X66357500Y-39941500D03*
X68897500Y-39941500D03*
X71437500Y-39941500D03*
X73977500Y-39941500D03*
X76517500Y-39941500D03*
X79057500Y-39941500D03*
X81597500Y-39941500D03*
X84137500Y-39941500D03*
X86677500Y-39941500D03*
X89217500Y-39941500D03*
X91757500Y-39941500D03*
X94297500Y-39941500D03*
X96837500Y-39941500D03*
X96837500Y-24701500D03*
X94297500Y-24701500D03*
X91757500Y-24701500D03*
X89217500Y-24701500D03*
X86677500Y-24701500D03*
X84137500Y-24701500D03*
X81597500Y-24701500D03*
X79057500Y-24701500D03*
X76517500Y-24701500D03*
X73977500Y-24701500D03*
X71437500Y-24701500D03*
X68897500Y-24701500D03*
X66357500Y-24701500D03*
X63817500Y-24701500D03*
X61277500Y-24701500D03*
X58737500Y-24701500D03*
%TD*%
D16*
%TO.C,J5*%
X60706000Y-168148000D03*
D17*
X60706000Y-165608000D03*
X60706000Y-163068000D03*
X60706000Y-160528000D03*
X60706000Y-157988000D03*
X60706000Y-155448000D03*
%TD*%
D24*
%TO.C,D2*%
X145034000Y-166243000D03*
D25*
X147574000Y-166243000D03*
%TD*%
D15*
%TO.C,C38*%
X37059113Y-46482000D03*
D11*
X39559113Y-46482000D03*
%TD*%
D14*
%TO.C,H3*%
X167132000Y-27686000D03*
%TD*%
D18*
%TO.C,U1*%
X121778500Y-80518000D03*
X121778500Y-83058000D03*
X121778500Y-85598000D03*
X121778500Y-88138000D03*
X121778500Y-90678000D03*
X121778500Y-93218000D03*
X121778500Y-95758000D03*
X121778500Y-98298000D03*
X121778500Y-100838000D03*
X121778500Y-103378000D03*
X121778500Y-105918000D03*
X121778500Y-108458000D03*
X121778500Y-110998000D03*
X121778500Y-113538000D03*
X121778500Y-116078000D03*
X121778500Y-118618000D03*
X121778500Y-121158000D03*
X119238500Y-80518000D03*
X119238500Y-83058000D03*
X119238500Y-85598000D03*
X119238500Y-88138000D03*
X119238500Y-90678000D03*
X119238500Y-93218000D03*
X119238500Y-95758000D03*
X119238500Y-98298000D03*
X119238500Y-100838000D03*
X119238500Y-103378000D03*
X119238500Y-105918000D03*
X119238500Y-108458000D03*
X119238500Y-110998000D03*
X119238500Y-113538000D03*
X119238500Y-116078000D03*
X119238500Y-118618000D03*
X119238500Y-121158000D03*
X116698500Y-80518000D03*
X116698500Y-83058000D03*
X116698500Y-85598000D03*
X116698500Y-88138000D03*
X116698500Y-90678000D03*
X116698500Y-93218000D03*
X116698500Y-95758000D03*
X116698500Y-98298000D03*
X116698500Y-100838000D03*
X116698500Y-103378000D03*
X116698500Y-105918000D03*
X116698500Y-108458000D03*
X116698500Y-110998000D03*
X116698500Y-113538000D03*
X116698500Y-116078000D03*
X116698500Y-118618000D03*
X116698500Y-121158000D03*
X114158500Y-80518000D03*
X114158500Y-83058000D03*
X114158500Y-85598000D03*
X114158500Y-116078000D03*
X114158500Y-118618000D03*
X114158500Y-121158000D03*
X111618500Y-80518000D03*
X111618500Y-83058000D03*
X111618500Y-85598000D03*
X111618500Y-116078000D03*
X111618500Y-118618000D03*
X111618500Y-121158000D03*
X109078500Y-80518000D03*
X109078500Y-83058000D03*
X109078500Y-85598000D03*
X109078500Y-116078000D03*
X109078500Y-118618000D03*
X109078500Y-121158000D03*
X106538500Y-80518000D03*
X106538500Y-83058000D03*
X106538500Y-85598000D03*
X106538500Y-116078000D03*
X106538500Y-118618000D03*
X106538500Y-121158000D03*
X103998500Y-80518000D03*
X103998500Y-83058000D03*
X103998500Y-85598000D03*
X103998500Y-116078000D03*
X103998500Y-118618000D03*
X103998500Y-121158000D03*
X101458500Y-80518000D03*
X101458500Y-83058000D03*
X101458500Y-85598000D03*
X101458500Y-116078000D03*
X101458500Y-118618000D03*
X101458500Y-121158000D03*
X98918500Y-80518000D03*
X98918500Y-83058000D03*
X98918500Y-85598000D03*
X98918500Y-116078000D03*
X98918500Y-118618000D03*
X98918500Y-121158000D03*
X96378500Y-80518000D03*
X96378500Y-83058000D03*
X96378500Y-85598000D03*
X96378500Y-116078000D03*
X96378500Y-118618000D03*
X96378500Y-121158000D03*
X93838500Y-80518000D03*
X93838500Y-83058000D03*
X93838500Y-85598000D03*
X93838500Y-116078000D03*
X93838500Y-118618000D03*
X93838500Y-121158000D03*
X91298500Y-80518000D03*
X91298500Y-83058000D03*
X91298500Y-85598000D03*
X91298500Y-116078000D03*
X91298500Y-118618000D03*
X91298500Y-121158000D03*
X88758500Y-80518000D03*
X88758500Y-83058000D03*
X88758500Y-85598000D03*
X88758500Y-116078000D03*
X88758500Y-118618000D03*
X88758500Y-121158000D03*
X86218500Y-80518000D03*
X86218500Y-83058000D03*
X86218500Y-85598000D03*
X86218500Y-88138000D03*
X86218500Y-90678000D03*
X86218500Y-93218000D03*
X86218500Y-95758000D03*
X86218500Y-98298000D03*
X86218500Y-100838000D03*
X86218500Y-103378000D03*
X86218500Y-105918000D03*
X86218500Y-108458000D03*
X86218500Y-110998000D03*
X86218500Y-113538000D03*
X86218500Y-116078000D03*
X86218500Y-118618000D03*
X86218500Y-121158000D03*
X83678500Y-80518000D03*
X83678500Y-83058000D03*
X83678500Y-85598000D03*
X83678500Y-88138000D03*
X83678500Y-90678000D03*
X83678500Y-93218000D03*
X83678500Y-95758000D03*
X83678500Y-98298000D03*
X83678500Y-100838000D03*
X83678500Y-103378000D03*
X83678500Y-105918000D03*
X83678500Y-108458000D03*
X83678500Y-110998000D03*
X83678500Y-113538000D03*
X83678500Y-116078000D03*
X83678500Y-118618000D03*
X83678500Y-121158000D03*
X81138500Y-80518000D03*
X81138500Y-83058000D03*
X81138500Y-85598000D03*
X81138500Y-88138000D03*
X81138500Y-90678000D03*
X81138500Y-93218000D03*
X81138500Y-95758000D03*
X81138500Y-98298000D03*
X81138500Y-100838000D03*
X81138500Y-103378000D03*
X81138500Y-105918000D03*
X81138500Y-108458000D03*
X81138500Y-110998000D03*
X81138500Y-113538000D03*
X81138500Y-116078000D03*
X81138500Y-118618000D03*
X81138500Y-121158000D03*
%TD*%
D15*
%TO.C,C39*%
X165609388Y-145034000D03*
D11*
X168109388Y-145034000D03*
%TD*%
D16*
%TO.C,J4*%
X102362000Y-169164000D03*
D17*
X102362000Y-166624000D03*
X104902000Y-169164000D03*
X104902000Y-166624000D03*
X107442000Y-169164000D03*
X107442000Y-166624000D03*
%TD*%
D16*
%TO.C,J14*%
X118110000Y-154749500D03*
D17*
X118110000Y-152209500D03*
X118110000Y-149669500D03*
X118110000Y-147129500D03*
X118110000Y-144589500D03*
X118110000Y-142049500D03*
%TD*%
D28*
%TO.C,SW2*%
X114912000Y-163394000D03*
X121412000Y-163394000D03*
X114912000Y-167894000D03*
X121412000Y-167894000D03*
%TD*%
D16*
%TO.C,SW1*%
X131953000Y-166370000D03*
D17*
X129413000Y-166370000D03*
X126873000Y-166370000D03*
%TD*%
D16*
%TO.C,J7*%
X125240000Y-141732000D03*
D17*
X125240000Y-144272000D03*
%TD*%
D29*
%TO.C,C11*%
X68326000Y-144801500D03*
X68326000Y-142726500D03*
%TD*%
D30*
%TO.C,R12*%
X122174000Y-147320000D03*
X122174000Y-149320000D03*
%TD*%
D29*
%TO.C,C7*%
X103632000Y-146347000D03*
X103632000Y-144272000D03*
%TD*%
D31*
%TO.C,R28*%
X104553000Y-35687000D03*
X106553000Y-35687000D03*
%TD*%
D29*
%TO.C,C31*%
X55753000Y-30628500D03*
X55753000Y-28553500D03*
%TD*%
D30*
%TO.C,R13*%
X111506000Y-164608000D03*
X111506000Y-166608000D03*
%TD*%
%TO.C,R23*%
X28390000Y-112300000D03*
X28390000Y-114300000D03*
%TD*%
D32*
%TO.C,C10*%
X72644000Y-147828000D03*
X74719000Y-147828000D03*
%TD*%
D30*
%TO.C,R24*%
X31340000Y-112300000D03*
X31340000Y-114300000D03*
%TD*%
%TO.C,R18*%
X42320000Y-36862000D03*
X42320000Y-38862000D03*
%TD*%
D32*
%TO.C,C16*%
X80772000Y-133096000D03*
X82847000Y-133096000D03*
%TD*%
D30*
%TO.C,R26*%
X61722000Y-59182000D03*
X61722000Y-61182000D03*
%TD*%
%TO.C,R16*%
X36420000Y-36862000D03*
X36420000Y-38862000D03*
%TD*%
D29*
%TO.C,C29*%
X143764000Y-53891000D03*
X143764000Y-51816000D03*
%TD*%
D31*
%TO.C,R9*%
X103886000Y-162814000D03*
X105886000Y-162814000D03*
%TD*%
D29*
%TO.C,C25*%
X164084000Y-104394000D03*
X164084000Y-102319000D03*
%TD*%
D32*
%TO.C,C32*%
X67288500Y-42672000D03*
X69363500Y-42672000D03*
%TD*%
D33*
%TO.C,C42*%
X67064000Y-87079000D03*
X67064000Y-89154000D03*
%TD*%
D34*
%TO.C,C35*%
X113559500Y-56388000D03*
X111484500Y-56388000D03*
%TD*%
%TO.C,C40*%
X118957000Y-60896500D03*
X116882000Y-60896500D03*
%TD*%
D30*
%TO.C,R17*%
X39370000Y-36862000D03*
X39370000Y-38862000D03*
%TD*%
D32*
%TO.C,C41*%
X82973000Y-63119000D03*
X85048000Y-63119000D03*
%TD*%
D31*
%TO.C,R22*%
X79010000Y-60261500D03*
X81010000Y-60261500D03*
%TD*%
D30*
%TO.C,R25*%
X34290000Y-112300000D03*
X34290000Y-114300000D03*
%TD*%
D29*
%TO.C,C27*%
X164084000Y-53848000D03*
X164084000Y-51773000D03*
%TD*%
D30*
%TO.C,R11*%
X125730000Y-147320000D03*
X125730000Y-149320000D03*
%TD*%
D29*
%TO.C,C26*%
X164278000Y-79777500D03*
X164278000Y-77702500D03*
%TD*%
D32*
%TO.C,C12*%
X72898000Y-133096000D03*
X74973000Y-133096000D03*
%TD*%
D35*
%TO.C,R21*%
X33083500Y-94392500D03*
X33083500Y-92392500D03*
%TD*%
D29*
%TO.C,C24*%
X144018000Y-80010000D03*
X144018000Y-77935000D03*
%TD*%
D30*
%TO.C,R10*%
X98361500Y-48149000D03*
X98361500Y-50149000D03*
%TD*%
%TO.C,R19*%
X43243500Y-84455000D03*
X43243500Y-86455000D03*
%TD*%
D29*
%TO.C,C30*%
X136452000Y-28448000D03*
X136452000Y-26373000D03*
%TD*%
D30*
%TO.C,R29*%
X118162000Y-163782500D03*
X118162000Y-165782500D03*
%TD*%
D33*
%TO.C,C15*%
X82804000Y-139954000D03*
X82804000Y-142029000D03*
%TD*%
D34*
%TO.C,C13*%
X79248000Y-147828000D03*
X77173000Y-147828000D03*
%TD*%
D29*
%TO.C,C28*%
X156772000Y-28491000D03*
X156772000Y-26416000D03*
%TD*%
D33*
%TO.C,C14*%
X68326000Y-136376500D03*
X68326000Y-138451500D03*
%TD*%
D29*
%TO.C,C23*%
X143764000Y-104415500D03*
X143764000Y-102340500D03*
%TD*%
D35*
%TO.C,R20*%
X33083500Y-90106500D03*
X33083500Y-88106500D03*
%TD*%
D32*
%TO.C,C34*%
X111484500Y-47498000D03*
X113559500Y-47498000D03*
%TD*%
D34*
%TO.C,C8*%
X103378000Y-136652000D03*
X101303000Y-136652000D03*
%TD*%
D32*
%TO.C,C9*%
X108923000Y-136652000D03*
X110998000Y-136652000D03*
%TD*%
D31*
%TO.C,R15*%
X145367500Y-162433000D03*
X147367500Y-162433000D03*
%TD*%
D36*
%TO.C,R27*%
X106553000Y-39370000D03*
X104553000Y-39370000D03*
%TD*%
D31*
%TO.C,R14*%
X138636500Y-162115500D03*
X140636500Y-162115500D03*
%TD*%
M02*
