M48
; DRILL file {KiCad 9.0.2+dfsg-1} date 2025-09-24T02:43:53+0200
; FORMAT={-:-/ absolute / inch / decimal}
; #@! TF.CreationDate,2025-09-24T02:43:53+02:00
; #@! TF.GenerationSoftware,Kicad,Pcbnew,9.0.2+dfsg-1
; #@! TF.FileFunction,Plated,1,4,PTH
FMAT,2
INCH
; #@! TA.AperFunction,Plated,PTH,ViaDrill
T1C0.0079
; #@! TA.AperFunction,Plated,PTH,ViaDrill
T2C0.0118
; #@! TA.AperFunction,Plated,PTH,ViaDrill
T3C0.0236
; #@! TA.AperFunction,Plated,PTH,ComponentDrill
T4C0.0300
; #@! TA.AperFunction,Plated,PTH,ViaDrill
T5C0.0315
; #@! TA.AperFunction,Plated,PTH,ComponentDrill
T6C0.0315
; #@! TA.AperFunction,Plated,PTH,ComponentDrill
T7C0.0354
; #@! TA.AperFunction,Plated,PTH,ComponentDrill
T8C0.0394
; #@! TA.AperFunction,Plated,PTH,ComponentDrill
T9C0.0400
; #@! TA.AperFunction,Plated,PTH,ComponentDrill
T10C0.0433
; #@! TA.AperFunction,Plated,PTH,ComponentDrill
T11C0.0551
%
G90
G05
T1
X0.905Y-3.585
X0.925Y-3.67
X0.9575Y-3.705
X0.965Y-3.5075
X0.99Y-4.5375
X1.01Y-4.3975
X1.0175Y-4.5675
X1.0375Y-4.4025
X1.0425Y-3.5875
X1.06Y-2.6975
X1.0625Y-3.73
X1.065Y-3.785
X1.065Y-4.315
X1.0725Y-3.83
X1.0775Y-4.2625
X1.0825Y-4.75
X1.0887Y-4.6537
X1.1125Y-4.6325
X1.13Y-3.16
X1.135Y-2.805
X1.135Y-3.125
X1.1525Y-3.1075
X1.165Y-2.81
X1.24Y-3.4975
X1.2525Y-3.435
X1.29Y-2.9125
X1.295Y-4.405
X1.3075Y-2.7075
X1.31Y-1.63
X1.32Y-3.83
X1.325Y-3.8875
X1.33Y-2.9325
X1.34Y-4.265
X1.35Y-1.745
X1.35Y-4.155
X1.355Y-3.02
X1.3625Y-4.13
X1.385Y-1.72
X1.395Y-4.455
X1.425Y-4.62
X1.445Y-4.59
X1.47Y-4.535
X1.5Y-2.675
X1.505Y-2.62
X1.505Y-3.875
X1.51Y-3.83
X1.605Y-2.55
X1.61Y-5.075
X1.6125Y-2.4775
X1.615Y-3.115
X1.62Y-2.6025
X1.62Y-3.1925
X1.6238Y-2.6763
X1.63Y-5.11
X1.725Y-1.425
X1.725Y-5.455
X1.755Y-5.4
X1.76Y-5.435
X1.7625Y-3.48
X1.7625Y-5.3625
X1.765Y-5.275
X1.7725Y-3.3325
X1.7752Y-5.3152
X1.7825Y-6.4275
X1.7825Y-6.4675
X1.79Y-4.195
X1.8Y-3.5125
X1.805Y-4.5825
X1.849Y-4.301
X1.855Y-4.62
X1.8675Y-4.9825
X1.87Y-5.025
X1.875Y-4.19
X1.875Y-4.605
X1.8775Y-5.9325
X1.885Y-3.2925
X1.885Y-3.36
X1.895Y-4.5825
X1.8975Y-2.9375
X1.9025Y-2.805
X1.909Y-5.901
X1.9212Y-3.2262
X1.9475Y-4.315
X1.96Y-3.27
X1.965Y-4.4525
X1.975Y-3.6425
X2.0175Y-4.545
X2.0425Y-5.01
X2.045Y-2.7125
X2.0625Y-6.0775
X2.065Y-5.64
X2.075Y-5.68
X2.08Y-6.055
X2.0825Y-2.3475
X2.09Y-3.5625
X2.0975Y-2.555
X2.11Y-6.03
X2.1175Y-3.4975
X2.1225Y-3.45
X2.1275Y-3.38
X2.13Y-6.1225
X2.1425Y-4.3675
X2.1625Y-2.195
X2.1625Y-6.1125
X2.17Y-1.59
X2.1725Y-1.7175
X2.1725Y-3.19
X2.1775Y-3.1625
X2.1825Y-3.6275
X2.19Y-3.1
X2.2Y-3.1425
X2.205Y-6.105
X2.2113Y-2.6837
X2.2125Y-5.81
X2.215Y-3.0775
X2.2225Y-2.335
X2.225Y-6.12
X2.2275Y-1.015
X2.2333Y-5.8219
X2.2425Y-2.47
X2.25Y-2.445
X2.2525Y-1.895
X2.2525Y-5.8
X2.255Y-5.7725
X2.265Y-2.4175
X2.2775Y-5.78
X2.2825Y-5.6925
X2.286Y-5.717
X2.2875Y-2.3975
X2.29Y-3.205
X2.2925Y-1.8975
X2.295Y-5.745
X2.2975Y-4.075
X2.3Y-5.6175
X2.3025Y-6.375
X2.305Y-3.12
X2.305Y-3.1825
X2.305Y-4.11
X2.31Y-3.1525
X2.3125Y-5.595
X2.3275Y-5.575
X2.345Y-2.485
X2.3575Y-1.68
X2.3575Y-5.5725
X2.37Y-3.525
X2.3775Y-3.1925
X2.3775Y-3.6275
X2.38Y-5.565
X2.38Y-5.9875
X2.385Y-5.5375
X2.3875Y-4.2875
X2.4Y-1.76
X2.41Y-4.2775
X2.4125Y-2.095
X2.4175Y-3.9
X2.4187Y-3.8529
X2.42Y-3.795
X2.4213Y-5.9887
X2.4225Y-3.9525
X2.425Y-3.705
X2.425Y-3.7525
X2.425Y-4.0
X2.425Y-4.075
X2.425Y-4.1
X2.425Y-5.775
X2.4256Y-4.0489
X2.445Y-1.8725
X2.45Y-5.9875
X2.4525Y-5.785
X2.4525Y-6.3025
X2.4625Y-4.9675
X2.4775Y-1.8725
X2.4775Y-4.36
X2.48Y-5.9875
X2.485Y-5.84
X2.4925Y-2.2525
X2.4975Y-3.585
X2.505Y-5.815
X2.5125Y-4.355
X2.5125Y-4.4125
X2.52Y-2.83
X2.53Y-3.3725
X2.5325Y-3.7625
X2.5325Y-3.8125
X2.535Y-3.7875
X2.535Y-4.8775
X2.535Y-5.99
X2.54Y-3.6275
X2.54Y-4.6625
X2.5425Y-3.865
X2.5425Y-3.8925
X2.5525Y-4.925
X2.5575Y-3.415
X2.5575Y-3.495
X2.5637Y-5.9912
X2.565Y-1.2
X2.565Y-5.1475
X2.5675Y-6.3125
X2.5836Y-4.9761
X2.585Y-4.93
X2.5875Y-4.885
X2.59Y-2.0075
X2.59Y-4.6675
X2.595Y-6.0253
X2.6Y-4.995
X2.6Y-6.66
X2.6025Y-4.9525
X2.61Y-6.6825
X2.6113Y-3.8937
X2.6125Y-5.2075
X2.6175Y-6.0058
X2.625Y-3.8625
X2.6275Y-4.075
X2.63Y-5.275
X2.6325Y-5.15
X2.6325Y-5.54
X2.635Y-5.235
X2.6425Y-3.84
X2.655Y-4.11
X2.6553Y-6.5722
X2.6562Y-3.8137
X2.6675Y-4.8575
X2.6725Y-3.79
X2.68Y-5.26
X2.685Y-1.32
X2.6975Y-5.85
X2.7Y-4.6675
X2.7025Y-5.1475
X2.705Y-2.525
X2.705Y-5.5025
X2.7075Y-4.6925
X2.7075Y-5.8925
X2.71Y-5.545
X2.71Y-6.1725
X2.72Y-4.15
X2.725Y-5.855
X2.7275Y-5.1525
X2.73Y-6.1525
X2.7375Y-4.075
X2.7437Y-3.4238
X2.7525Y-5.8125
X2.755Y-3.3775
X2.7575Y-3.5225
X2.76Y-3.2
X2.77Y-6.2725
X2.7737Y-2.0437
X2.7825Y-1.9475
X2.7825Y-3.545
X2.805Y-2.0375
X2.805Y-4.8
X2.8175Y-4.935
X2.82Y-1.3
X2.82Y-4.6075
X2.82Y-5.315
X2.82Y-5.785
X2.8225Y-4.6325
X2.8225Y-4.7825
X2.825Y-4.9875
X2.835Y-4.915
X2.835Y-4.955
X2.8375Y-4.3925
X2.8375Y-5.015
X2.8475Y-5.3175
X2.85Y-4.2675
X2.855Y-4.58
X2.8725Y-5.625
X2.875Y-2.595
X2.8825Y-5.3175
X2.8829Y-5.0254
X2.8914Y-5.0525
X2.8975Y-6.68
X2.9Y-3.6
X2.9025Y-6.1375
X2.9075Y-4.09
X2.91Y-1.275
X2.925Y-5.185
X2.93Y-2.5975
X2.935Y-4.0775
X2.9375Y-6.1625
X2.945Y-4.1225
X2.9475Y-3.43
X2.9725Y-4.105
X2.9725Y-4.2175
X2.98Y-2.61
X2.985Y-2.3575
X3.0Y-6.67
X3.0025Y-3.225
X3.0025Y-4.17
X3.03Y-2.625
X3.03Y-4.125
X3.0325Y-3.515
X3.0325Y-3.865
X3.035Y-3.225
X3.035Y-4.165
X3.035Y-6.105
X3.05Y-5.005
X3.05Y-5.2775
X3.055Y-3.905
X3.0575Y-3.535
X3.0575Y-3.61
X3.06Y-1.85
X3.06Y-3.635
X3.0625Y-2.38
X3.0625Y-4.3475
X3.065Y-3.805
X3.0675Y-3.7625
X3.0675Y-3.9325
X3.07Y-4.4025
X3.0725Y-4.3075
X3.075Y-2.265
X3.08Y-2.6225
X3.09Y-5.225
X3.095Y-1.8825
X3.095Y-3.955
X3.1075Y-6.63
X3.1125Y-4.005
X3.1175Y-4.51
X3.12Y-3.9625
X3.12Y-4.215
X3.12Y-5.195
X3.125Y-3.0625
X3.125Y-4.855
X3.125Y-6.66
X3.1262Y-3.3537
X3.13Y-2.62
X3.13Y-3.92
X3.13Y-4.03
X3.135Y-3.44
X3.1375Y-3.0975
X3.1375Y-3.9425
X3.1375Y-4.06
X3.1375Y-6.6025
X3.14Y-3.9925
X3.1475Y-2.945
X3.1475Y-4.715
X3.155Y-2.765
X3.1575Y-3.0725
X3.16Y-3.7125
X3.1625Y-6.615
X3.185Y-2.7675
X3.1875Y-2.6225
X3.1925Y-2.4525
X3.1963Y-2.9463
X3.2025Y-5.6675
X3.2037Y-3.0913
X3.2064Y-4.9725
X3.21Y-2.755
X3.215Y-2.4925
X3.23Y-2.6225
X3.23Y-3.8025
X3.2325Y-5.1475
X3.2375Y-5.7175
X3.2375Y-6.3475
X3.24Y-1.275
X3.2425Y-3.09
X3.2425Y-6.515
X3.245Y-1.2
X3.245Y-3.5675
X3.245Y-6.5425
X3.2462Y-2.7788
X3.25Y-1.3
X3.265Y-5.1425
X3.2775Y-4.7175
X3.28Y-5.845
X3.29Y-1.27
X3.29Y-5.875
X3.31Y-2.53
X3.335Y-5.145
X3.3375Y-2.8925
X3.3375Y-5.5
X3.34Y-2.6225
X3.34Y-3.1975
X3.3512Y-4.9013
X3.3525Y-4.9325
X3.355Y-6.3375
X3.3725Y-6.23
X3.375Y-4.8775
X3.3813Y-2.8487
X3.395Y-6.195
X3.4Y-3.115
X3.405Y-5.14
X3.405Y-6.0625
X3.41Y-2.84
X3.4225Y-6.1975
X3.4263Y-3.1288
X3.4325Y-4.4125
X3.4425Y-3.215
X3.4512Y-5.6238
X3.455Y-5.1975
X3.4575Y-4.1
X3.4575Y-5.4975
X3.465Y-5.2775
X3.4675Y-5.47
X3.4775Y-5.1875
X3.4838Y-4.1288
X3.49Y-2.5925
X3.4925Y-5.4475
X3.495Y-5.2925
X3.5Y-4.3975
X3.5Y-6.34
X3.5063Y-4.1037
X3.5075Y-5.215
X3.51Y-5.6425
X3.515Y-2.95
X3.5225Y-5.335
X3.5275Y-4.45
X3.5275Y-5.6125
X3.5288Y-6.0587
X3.53Y-5.6575
X3.5325Y-3.2025
X3.5375Y-5.57
X3.5375Y-5.7125
X3.54Y-2.6
X3.5475Y-5.3175
X3.55Y-5.09
X3.5525Y-5.115
X3.555Y-6.1075
X3.5575Y-2.9475
X3.5575Y-5.6675
X3.5575Y-5.6975
X3.5575Y-5.7275
X3.56Y-3.0975
X3.5625Y-6.35
X3.57Y-3.7975
X3.5725Y-4.9225
X3.575Y-5.315
X3.5825Y-5.505
X3.59Y-2.6125
X3.59Y-3.0225
X3.59Y-6.355
X3.595Y-3.1175
X3.6025Y-5.4875
X3.605Y-5.33
X3.6088Y-5.5112
X3.6138Y-2.9413
X3.615Y-3.07
X3.62Y-5.3025
X3.62Y-5.4686
X3.625Y-6.3525
X3.63Y-3.1125
X3.635Y-6.14
X3.64Y-2.6225
X3.6425Y-5.115
X3.65Y-5.305
X3.6513Y-2.9463
X3.655Y-3.1175
X3.6575Y-6.3575
X3.66Y-5.28
X3.66Y-6.09
X3.685Y-6.3575
X3.69Y-2.6325
X3.715Y-3.56
X3.7175Y-5.5825
X3.7275Y-5.5325
X3.73Y-2.965
X3.73Y-5.2075
X3.73Y-5.2825
X3.735Y-5.965
X3.7425Y-3.56
X3.7537Y-3.4213
X3.755Y-5.22
X3.755Y-5.2875
X3.7588Y-2.6437
X3.7625Y-2.9425
X3.7725Y-3.06
X3.7725Y-3.56
X3.775Y-2.725
X3.7775Y-3.09
X3.785Y-6.68
X3.79Y-2.745
X3.795Y-3.4725
X3.795Y-5.53
X3.7975Y-2.635
X3.7975Y-2.785
X3.8Y-3.105
X3.8013Y-2.9463
X3.8025Y-3.56
X3.8025Y-3.94
X3.8075Y-5.5025
X3.8175Y-6.6925
X3.82Y-2.765
X3.82Y-3.0625
X3.82Y-3.6275
X3.82Y-4.4625
X3.8225Y-5.5275
X3.825Y-1.9775
X3.8275Y-2.635
X3.835Y-1.675
X3.835Y-5.6425
X3.84Y-5.5975
X3.8425Y-3.1225
X3.8475Y-4.535
X3.855Y-5.8925
X3.86Y-5.28
X3.8725Y-1.855
X3.8725Y-5.255
X3.88Y-5.9125
X3.8875Y-4.4575
X3.89Y-6.6
X3.8925Y-4.8475
X3.895Y-1.59
X3.8975Y-6.6225
X3.9025Y-5.935
X3.9025Y-6.695
X3.915Y-4.8325
X3.9175Y-3.4125
X3.9325Y-2.94
X3.9325Y-3.51
X3.9475Y-3.56
X3.9525Y-4.06
X3.955Y-1.615
X3.96Y-4.53
X3.9675Y-4.035
X3.9825Y-3.9125
X3.9875Y-4.88
X3.995Y-2.855
X4.0Y-5.515
X4.0025Y-4.9025
X4.0075Y-2.305
X4.0088Y-6.2588
X4.01Y-3.0525
X4.0312Y-5.5388
X4.035Y-2.28
X4.0375Y-3.9425
X4.045Y-3.2625
X4.045Y-4.1275
X4.0466Y-5.2159
X4.0475Y-5.14
X4.06Y-5.5475
X4.0637Y-5.5787
X4.0675Y-2.9375
X4.08Y-5.92
X4.08Y-6.11
X4.0875Y-4.12
X4.0925Y-4.04
X4.0975Y-2.595
X4.1Y-3.5925
X4.105Y-6.2625
X4.11Y-3.075
X4.11Y-6.1125
X4.1125Y-1.6675
X4.115Y-4.0525
X4.115Y-6.0275
X4.1175Y-4.08
X4.1175Y-4.105
X4.12Y-5.93
X4.13Y-3.7075
X4.1355Y-3.0475
X4.1387Y-6.1412
X4.145Y-2.6025
X4.1475Y-4.4575
X4.1487Y-3.7537
X4.16Y-4.7275
X4.1612Y-3.6912
X4.1687Y-6.45
X4.195Y-2.6075
X4.2025Y-2.0175
X4.21Y-5.7025
X4.21Y-5.925
X4.2125Y-3.7625
X4.225Y-2.6425
X4.23Y-4.925
X4.2475Y-2.6225
X4.2525Y-4.9375
X4.2725Y-4.7275
X4.2775Y-6.0775
X4.2812Y-4.9413
X4.2862Y-2.6587
X4.2925Y-6.41
X4.3163Y-3.3163
X4.3438Y-4.5488
X4.345Y-2.6325
X4.3625Y-2.6825
X4.37Y-4.45
X4.37Y-4.86
X4.3725Y-3.53
X4.3784Y-3.7325
X4.3875Y-3.4375
X4.3925Y-3.505
X4.395Y-2.635
X4.395Y-4.4475
X4.4Y-6.18
X4.4125Y-3.52
X4.42Y-2.6325
X4.42Y-4.4475
X4.4275Y-2.7075
X4.435Y-4.7375
X4.435Y-6.145
X4.4413Y-5.5762
X4.445Y-4.45
X4.45Y-2.7175
X4.45Y-5.11
X4.47Y-4.45
X4.475Y-3.4125
X4.475Y-4.015
X4.4775Y-5.1225
X4.4875Y-3.6525
X4.49Y-3.545
X4.4975Y-4.35
X4.5Y-3.755
X4.5Y-4.01
X4.5Y-4.45
X4.505Y-3.695
X4.505Y-3.9525
X4.51Y-3.5675
X4.51Y-4.9275
X4.5125Y-3.6025
X4.5125Y-5.1125
X4.515Y-3.5425
X4.5175Y-6.1875
X4.525Y-4.3375
X4.5275Y-4.005
X4.5425Y-5.52
X4.5425Y-5.5475
X4.545Y-3.795
X4.55Y-6.185
X4.5525Y-4.72
X4.5687Y-2.9062
X4.5737Y-4.8163
X4.5775Y-5.165
X4.6075Y-5.0925
X4.6175Y-4.875
X4.62Y-4.9025
X4.6288Y-2.6338
X4.6325Y-2.1275
X4.645Y-4.63
X4.6463Y-4.7062
X4.6635Y-4.611
X4.695Y-2.5925
X4.71Y-1.4775
X4.7125Y-3.06
X4.7275Y-1.4325
X4.745Y-2.5975
X4.75Y-1.455
X4.7625Y-1.385
X4.7725Y-3.06
X4.775Y-2.005
X4.7925Y-1.3325
X4.795Y-2.6
X4.8375Y-1.495
X4.84Y-4.06
X4.845Y-2.6025
X4.845Y-4.0325
X4.85Y-4.355
X4.8525Y-1.395
X4.87Y-3.59
X4.8778Y-1.3428
X4.88Y-4.5
X4.8887Y-4.3762
X4.91Y-3.755
X4.91Y-4.49
X4.92Y-3.66
X4.92Y-4.925
X4.925Y-2.0175
X4.9275Y-4.375
X4.9325Y-1.245
X4.9325Y-4.3475
X4.935Y-4.43
X4.955Y-4.925
X4.9575Y-3.4
X4.9675Y-3.4275
X4.9775Y-3.4575
X4.9875Y-3.4875
X4.9912Y-4.6513
X4.9925Y-3.8625
X4.995Y-2.0175
X4.9975Y-3.515
X5.0075Y-3.5425
X5.015Y-4.805
X5.015Y-4.835
X5.0175Y-3.5675
X5.03Y-3.6107
X5.03Y-3.6375
X5.0325Y-3.69
X5.035Y-3.6625
X5.035Y-3.715
X5.035Y-3.77
X5.0362Y-3.9137
X5.0375Y-1.5675
X5.04Y-1.5275
X5.045Y-1.02
X5.045Y-1.22
X5.045Y-1.4725
X5.0475Y-1.07
X5.0475Y-1.12
X5.0475Y-1.37
X5.0475Y-1.42
X5.05Y-1.32
X5.0525Y-1.17
X5.0525Y-1.27
X5.0525Y-3.59
X5.085Y-3.6175
X5.095Y-3.77
X5.0975Y-4.3637
X5.1025Y-4.925
X5.1275Y-2.6225
X5.13Y-5.285
X5.145Y-3.0275
X5.1525Y-4.5475
X5.1587Y-4.7938
X5.165Y-3.215
X5.1775Y-4.3725
X5.18Y-3.175
X5.18Y-4.595
X5.2075Y-4.9875
X5.2088Y-4.4712
X5.2325Y-4.94
X5.28Y-3.875
X5.2825Y-3.8475
X5.2925Y-1.645
X5.3275Y-2.57
X5.33Y-2.37
X5.33Y-2.42
X5.33Y-2.47
X5.33Y-4.595
X5.3325Y-3.57
X5.335Y-2.32
X5.335Y-2.52
X5.335Y-4.55
X5.34Y-3.52
X5.35Y-2.27
X5.35Y-3.47
X5.355Y-1.81
X5.355Y-3.37
X5.3575Y-3.32
X5.3575Y-3.42
X5.3675Y-3.27
X5.375Y-1.9575
X5.375Y-2.22
X5.38Y-2.12
X5.38Y-3.22
X5.39Y-2.1875
X5.3925Y-2.07
X5.4025Y-1.805
X5.4025Y-4.17
X5.405Y-3.1225
X5.405Y-3.17
X5.405Y-4.195
X5.415Y-1.8325
X5.42Y-3.07
X5.4363Y-3.0187
X5.44Y-1.845
X5.4425Y-1.87
X5.45Y-4.72
X5.4525Y-4.215
X5.47Y-4.62
X5.475Y-3.245
X5.475Y-3.64
X5.48Y-3.195
X5.4825Y-3.8825
X5.49Y-4.67
X5.5Y-3.8625
X5.505Y-3.64
X5.5175Y-2.6925
X5.5275Y-2.85
X5.535Y-3.885
X5.6175Y-3.64
X5.6925Y-2.32
X5.7275Y-4.77
X5.7888Y-2.9238
X5.7975Y-2.9
X5.8075Y-2.8725
X5.8375Y-3.9125
X5.8425Y-4.12
X5.8425Y-4.22
X5.85Y-4.47
X5.8525Y-3.57
X5.855Y-4.37
X5.8575Y-4.52
X5.8637Y-2.7812
X5.8983Y-4.82
X5.9Y-4.07
X5.91Y-5.045
X5.915Y-5.0725
X5.9275Y-4.2725
X5.9312Y-4.1162
X5.9387Y-3.9888
X5.9387Y-4.0213
X5.945Y-4.3262
X5.9525Y-4.1937
X5.955Y-2.98
X5.955Y-4.0525
X5.9737Y-5.0713
X5.9775Y-4.4175
X5.9825Y-3.07
X5.9925Y-3.12
X5.9975Y-4.47
X6.015Y-2.645
X6.015Y-4.52
X6.0175Y-2.695
X6.0175Y-3.17
X6.0175Y-3.22
X6.0175Y-4.57
X6.065Y-1.93
X6.0687Y-1.9862
X6.0775Y-1.9575
X6.0825Y-1.6175
X6.0987Y-4.9612
X6.1Y-1.27
X6.12Y-1.6725
X6.1225Y-1.455
X6.125Y-1.3975
X6.1275Y-4.27
X6.1325Y-3.27
X6.1325Y-3.32
X6.1325Y-3.3675
X6.1325Y-3.4175
X6.1325Y-3.47
X6.1325Y-3.5175
X6.1325Y-3.5675
X6.1375Y-4.4775
X6.14Y-1.89
X6.15Y-1.73
X6.16Y-1.85
X6.17Y-1.6972
X6.175Y-1.62
X6.185Y-1.595
X6.2012Y-2.9362
X6.225Y-3.4225
X6.24Y-1.27
X6.24Y-1.32
X6.24Y-1.6975
X6.2425Y-1.07
X6.2425Y-1.22
X6.245Y-1.37
X6.245Y-1.47
X6.245Y-2.595
X6.2475Y-1.12
X6.3Y-3.095
X6.3075Y-1.8925
X6.3137Y-2.4162
X6.3175Y-2.0928
X6.32Y-3.1428
X6.335Y-2.1472
X6.34Y-4.1472
X6.3537Y-1.4238
X6.3625Y-3.22
X6.3825Y-1.5375
X6.395Y-4.175
X6.4275Y-1.54
X6.4425Y-1.48
X6.4925Y-4.8225
X6.4925Y-4.8825
X6.4988Y-2.2563
X6.5075Y-3.22
X6.5175Y-3.27
X6.5175Y-4.9725
X6.5225Y-2.27
X6.525Y-3.32
X6.525Y-4.47
X6.5275Y-2.47
X6.5275Y-4.22
X6.5275Y-4.27
X6.5275Y-4.32
X6.5287Y-2.3712
X6.53Y-3.37
X6.53Y-3.47
X6.53Y-4.37
X6.5325Y-2.32
X6.585Y-1.5625
X6.6Y-1.535
X6.6375Y-3.52
X6.6425Y-4.17
X6.6437Y-3.4838
X6.6437Y-4.8738
X6.645Y-4.465
X6.645Y-4.5225
X6.655Y-2.465
X6.6562Y-2.5187
T2
X1.0475Y-2.9125
X1.1175Y-4.5425
X1.1575Y-3.015
X1.235Y-4.5425
X1.3025Y-3.585
X1.305Y-3.8
X1.36Y-4.5425
X1.49Y-1.445
X1.6125Y-1.4475
X1.7688Y-3.2437
X1.8725Y-3.71
X1.88Y-5.085
X1.8925Y-2.585
X1.9025Y-6.05
X1.9725Y-3.205
X1.9875Y-4.325
X2.08Y-2.61
X2.1375Y-5.935
X2.29Y-5.8675
X2.375Y-3.6775
X2.3825Y-4.05
X2.3825Y-4.11
X2.385Y-2.41
X2.44Y-4.845
X2.4925Y-5.3425
X2.5075Y-5.49
X2.515Y-6.655
X2.6325Y-5.455
X2.71Y-5.0325
X2.7475Y-5.22
X2.8775Y-6.0875
X2.8825Y-4.195
X2.9825Y-5.7975
X2.9925Y-5.825
X3.0025Y-3.295
X3.01Y-5.15
X3.025Y-4.96
X3.0975Y-6.16
X3.125Y-6.475
X3.2025Y-5.5325
X3.2425Y-2.3775
X3.2763Y-5.1837
X3.2975Y-5.02
X3.3Y-3.115
X3.315Y-5.3975
X3.325Y-5.7575
X3.34Y-5.5495
X3.355Y-5.965
X3.5075Y-3.5725
X3.5125Y-5.4825
X3.69Y-6.115
X3.83Y-5.9075
X3.85Y-3.4525
X3.9525Y-6.135
X3.9625Y-5.325
X3.9775Y-3.9625
X3.9825Y-3.7275
X3.9825Y-4.0075
X3.985Y-3.845
X3.9875Y-3.6275
X3.9925Y-5.75
X4.0075Y-5.9225
X4.0125Y-5.7175
X4.045Y-3.56
X4.045Y-5.32
X4.1475Y-6.475
X4.15Y-5.685
X4.2883Y-5.3192
X4.3225Y-5.9925
X4.3625Y-5.3325
X4.39Y-6.44
X4.4425Y-3.5425
X4.4525Y-3.44
X4.5125Y-4.085
X4.652Y-6.567
X4.81Y-5.92
X4.8675Y-4.6375
X4.95Y-3.925
X4.9525Y-5.92
X5.005Y-4.945
X5.06Y-4.4975
X5.1525Y-6.0225
X5.165Y-6.3675
X5.195Y-3.35
X5.425Y-3.3825
X5.59Y-6.4175
X5.595Y-3.4825
X5.615Y-2.6575
X5.6175Y-2.5175
X5.715Y-4.9825
X5.7475Y-6.0225
X5.86Y-6.325
X5.88Y-2.005
X6.4225Y-1.6225
X6.43Y-4.8325
X6.49Y-1.975
X6.525Y-4.5325
X6.57Y-4.825
X6.63Y-3.8825
T3
X1.0725Y-2.385
X1.075Y-1.5525
X1.135Y-6.585
X1.2775Y-4.0725
X1.3575Y-2.4175
X1.385Y-2.8525
X1.3975Y-6.3025
X1.4025Y-2.945
X1.485Y-3.6825
X1.5175Y-1.36
X1.54Y-4.1975
X1.62Y-5.315
X1.6475Y-1.6225
X1.675Y-5.57
X1.855Y-4.71
X1.88Y-5.2575
X1.88Y-5.755
X1.8825Y-1.9075
X1.9075Y-1.3775
X1.935Y-6.315
X2.07Y-5.2125
X2.0725Y-5.1
X2.075Y-3.6125
X2.1325Y-1.21
X2.15Y-6.2275
X2.18Y-1.9525
X2.1825Y-3.005
X2.2875Y-3.2975
X2.395Y-5.7475
X2.4425Y-2.9225
X2.4475Y-5.185
X2.4625Y-4.4675
X2.465Y-1.75
X2.495Y-4.25
X2.4975Y-2.29
X2.5075Y-2.4475
X2.525Y-2.625
X2.5425Y-3.55
X2.545Y-4.15
X2.63Y-5.7175
X2.6317Y-5.6192
X2.6425Y-3.375
X2.65Y-3.9825
X2.66Y-1.62
X2.68Y-4.48
X2.6825Y-4.2775
X2.685Y-5.755
X2.6975Y-5.315
X2.755Y-5.45
X2.7725Y-3.7
X2.775Y-3.0925
X2.7775Y-2.6
X2.8Y-2.735
X2.8075Y-5.8225
X2.84Y-6.66
X2.852Y-5.1875
X2.895Y-6.385
X2.91Y-5.8775
X3.0125Y-5.2075
X3.04Y-3.11
X3.0525Y-1.75
X3.0975Y-1.9575
X3.1225Y-5.24
X3.1375Y-5.3725
X3.1775Y-5.8175
X3.2575Y-5.4575
X3.27Y-2.43
X3.2775Y-2.9
X3.315Y-5.59
X3.4Y-2.475
X3.4475Y-4.995
X3.4525Y-3.8175
X3.535Y-6.255
X3.54Y-2.465
X3.555Y-1.7
X3.5625Y-3.63
X3.565Y-3.9825
X3.57Y-4.34
X3.6325Y-5.9475
X3.65Y-1.1325
X3.7525Y-3.63
X3.755Y-3.98
X3.7575Y-4.3425
X3.81Y-5.3875
X3.8975Y-2.9225
X3.9025Y-2.4775
X3.985Y-2.0
X3.9925Y-2.4775
X4.0425Y-3.4725
X4.1075Y-2.7025
X4.12Y-1.24
X4.18Y-6.0825
X4.1825Y-3.4825
X4.235Y-4.3375
X4.24Y-3.98
X4.2875Y-3.695
X4.34Y-1.91
X4.3625Y-5.7225
X4.3675Y-4.2825
X4.37Y-3.6975
X4.37Y-5.62
X4.38Y-5.9925
X4.425Y-3.9825
X4.4975Y-2.9275
X4.51Y-1.3725
X4.555Y-1.8875
X4.595Y-2.455
X4.6425Y-2.1825
X4.68Y-2.3375
X4.75Y-5.5475
X4.7875Y-1.6525
X4.86Y-4.9475
X4.875Y-3.765
X4.9025Y-1.77
X4.945Y-3.2725
X5.0225Y-5.5925
X5.03Y-5.1
X5.0325Y-2.9725
X5.07Y-4.2875
X5.09Y-4.675
X5.0925Y-2.3225
X5.17Y-5.34
X5.2Y-2.1
X5.235Y-2.815
X5.2675Y-4.82
X5.305Y-1.1225
X5.3075Y-1.74
X5.3475Y-3.775
X5.4025Y-4.975
X5.4075Y-5.53
X5.43Y-0.99
X5.4475Y-2.01
X5.475Y-4.975
X5.4775Y-5.53
X5.545Y-5.53
X5.55Y-4.975
X5.595Y-2.0825
X5.6Y-4.11
X5.6325Y-3.0225
X5.6375Y-3.1925
X5.65Y-3.91
X5.72Y-4.0225
X5.725Y-2.0025
X5.7875Y-1.8175
X5.81Y-5.57
X5.905Y-3.895
X5.9225Y-3.7675
X5.9925Y-4.8
X6.06Y-1.4025
X6.075Y-2.815
X6.1025Y-1.1125
X6.145Y-3.7725
X6.175Y-3.0575
X6.225Y-0.995
X6.2475Y-1.9475
X6.2525Y-2.245
X6.3625Y-3.5725
X6.3875Y-4.1125
X6.4Y-2.11
X6.4Y-3.1625
X6.4075Y-3.8925
X6.4175Y-2.745
X6.505Y-3.0075
X6.5175Y-2.005
X6.5175Y-4.0225
X6.63Y-1.7975
T4
X3.1944Y-3.17
X3.1944Y-3.27
X3.1944Y-3.37
X3.1944Y-3.47
X3.1944Y-3.57
X3.1944Y-3.67
X3.1944Y-3.77
X3.1944Y-3.87
X3.1944Y-3.97
X3.1944Y-4.07
X3.1944Y-4.17
X3.1944Y-4.27
X3.1944Y-4.37
X3.1944Y-4.47
X3.1944Y-4.57
X3.1944Y-4.67
X3.1944Y-4.77
X3.2944Y-3.17
X3.2944Y-3.27
X3.2944Y-3.37
X3.2944Y-3.47
X3.2944Y-3.57
X3.2944Y-3.67
X3.2944Y-3.77
X3.2944Y-3.87
X3.2944Y-3.97
X3.2944Y-4.07
X3.2944Y-4.17
X3.2944Y-4.27
X3.2944Y-4.37
X3.2944Y-4.47
X3.2944Y-4.57
X3.2944Y-4.67
X3.2944Y-4.77
X3.3944Y-3.17
X3.3944Y-3.27
X3.3944Y-3.37
X3.3944Y-3.47
X3.3944Y-3.57
X3.3944Y-3.67
X3.3944Y-3.77
X3.3944Y-3.87
X3.3944Y-3.97
X3.3944Y-4.07
X3.3944Y-4.17
X3.3944Y-4.27
X3.3944Y-4.37
X3.3944Y-4.47
X3.3944Y-4.57
X3.3944Y-4.67
X3.3944Y-4.77
X3.4944Y-3.17
X3.4944Y-3.27
X3.4944Y-3.37
X3.4944Y-4.57
X3.4944Y-4.67
X3.4944Y-4.77
X3.5944Y-3.17
X3.5944Y-3.27
X3.5944Y-3.37
X3.5944Y-4.57
X3.5944Y-4.67
X3.5944Y-4.77
X3.6944Y-3.17
X3.6944Y-3.27
X3.6944Y-3.37
X3.6944Y-4.57
X3.6944Y-4.67
X3.6944Y-4.77
X3.7944Y-3.17
X3.7944Y-3.27
X3.7944Y-3.37
X3.7944Y-4.57
X3.7944Y-4.67
X3.7944Y-4.77
X3.8944Y-3.17
X3.8944Y-3.27
X3.8944Y-3.37
X3.8944Y-4.57
X3.8944Y-4.67
X3.8944Y-4.77
X3.9944Y-3.17
X3.9944Y-3.27
X3.9944Y-3.37
X3.9944Y-4.57
X3.9944Y-4.67
X3.9944Y-4.77
X4.0944Y-3.17
X4.0944Y-3.27
X4.0944Y-3.37
X4.0944Y-4.57
X4.0944Y-4.67
X4.0944Y-4.77
X4.1944Y-3.17
X4.1944Y-3.27
X4.1944Y-3.37
X4.1944Y-4.57
X4.1944Y-4.67
X4.1944Y-4.77
X4.2944Y-3.17
X4.2944Y-3.27
X4.2944Y-3.37
X4.2944Y-4.57
X4.2944Y-4.67
X4.2944Y-4.77
X4.3944Y-3.17
X4.3944Y-3.27
X4.3944Y-3.37
X4.3944Y-4.57
X4.3944Y-4.67
X4.3944Y-4.77
X4.4944Y-3.17
X4.4944Y-3.27
X4.4944Y-3.37
X4.4944Y-4.57
X4.4944Y-4.67
X4.4944Y-4.77
X4.5944Y-3.17
X4.5944Y-3.27
X4.5944Y-3.37
X4.5944Y-3.47
X4.5944Y-3.57
X4.5944Y-3.67
X4.5944Y-3.77
X4.5944Y-3.87
X4.5944Y-3.97
X4.5944Y-4.07
X4.5944Y-4.17
X4.5944Y-4.27
X4.5944Y-4.37
X4.5944Y-4.47
X4.5944Y-4.57
X4.5944Y-4.67
X4.5944Y-4.77
X4.6944Y-3.17
X4.6944Y-3.27
X4.6944Y-3.37
X4.6944Y-3.47
X4.6944Y-3.57
X4.6944Y-3.67
X4.6944Y-3.77
X4.6944Y-3.87
X4.6944Y-3.97
X4.6944Y-4.07
X4.6944Y-4.17
X4.6944Y-4.27
X4.6944Y-4.37
X4.6944Y-4.47
X4.6944Y-4.57
X4.6944Y-4.67
X4.6944Y-4.77
X4.7944Y-3.17
X4.7944Y-3.27
X4.7944Y-3.37
X4.7944Y-3.47
X4.7944Y-3.57
X4.7944Y-3.67
X4.7944Y-3.77
X4.7944Y-3.87
X4.7944Y-3.97
X4.7944Y-4.07
X4.7944Y-4.17
X4.7944Y-4.27
X4.7944Y-4.37
X4.7944Y-4.47
X4.7944Y-4.57
X4.7944Y-4.67
X4.7944Y-4.77
T5
X1.3275Y-1.9075
X1.635Y-1.9375
X1.645Y-1.775
X1.655Y-6.6075
X1.685Y-6.27
X1.87Y-4.455
X2.1225Y-6.3625
X2.95Y-6.535
X4.83Y-6.0525
X4.875Y-6.2975
X5.27Y-5.355
X5.6192Y-5.95
X5.695Y-5.61
X5.8375Y-5.8225
X6.365Y-5.07
X6.6425Y-5.0
T6
X1.459Y-1.83
X1.459Y-2.16
X1.55Y-4.34
X1.55Y-4.4384
X1.5574Y-1.83
X1.5574Y-2.16
X2.3125Y-0.9725
X2.3125Y-1.5725
X2.4125Y-0.9725
X2.4125Y-1.5725
X2.5125Y-0.9725
X2.5125Y-1.5725
X2.54Y-1.91
X2.54Y-2.01
X2.54Y-2.11
X2.54Y-2.21
X2.6125Y-0.9725
X2.6125Y-1.5725
X2.64Y-1.81
X2.64Y-1.91
X2.64Y-2.01
X2.64Y-2.11
X2.64Y-2.21
X2.64Y-2.31
X2.7125Y-0.9725
X2.7125Y-1.5725
X2.74Y-1.81
X2.74Y-1.91
X2.74Y-2.21
X2.74Y-2.31
X2.8125Y-0.9725
X2.8125Y-1.5725
X2.84Y-1.81
X2.84Y-1.91
X2.84Y-2.21
X2.84Y-2.31
X2.9125Y-0.9725
X2.9125Y-1.5725
X2.94Y-1.81
X2.94Y-1.91
X2.94Y-2.01
X2.94Y-2.11
X2.94Y-2.21
X2.94Y-2.31
X3.0125Y-0.9725
X3.0125Y-1.5725
X3.04Y-1.91
X3.04Y-2.01
X3.04Y-2.11
X3.04Y-2.21
X3.11Y-6.24
X3.11Y-6.54
X3.1125Y-0.9725
X3.1125Y-1.5725
X3.2125Y-0.9725
X3.2125Y-1.5725
X3.3125Y-0.9725
X3.3125Y-1.5725
X3.37Y-1.77
X3.37Y-2.37
X3.4125Y-0.9725
X3.4125Y-1.5725
X3.47Y-1.77
X3.47Y-2.37
X3.5125Y-0.9725
X3.5125Y-1.5725
X3.57Y-1.77
X3.57Y-2.37
X3.6125Y-0.9725
X3.6125Y-1.5725
X3.67Y-1.77
X3.67Y-2.37
X3.71Y-6.24
X3.71Y-6.54
X3.7125Y-0.9725
X3.7125Y-1.5725
X3.77Y-1.77
X3.77Y-2.37
X3.8125Y-0.9725
X3.8125Y-1.5725
X3.87Y-1.77
X3.87Y-2.37
X3.97Y-1.77
X3.97Y-2.37
X4.0404Y-6.1425
X4.07Y-1.77
X4.07Y-2.37
X4.17Y-1.77
X4.17Y-2.37
X4.2325Y-6.1425
X4.27Y-1.77
X4.27Y-2.37
X4.3611Y-1.2587
X4.3611Y-1.3689
X4.37Y-1.77
X4.37Y-2.37
X4.4438Y-1.2587
X4.47Y-1.77
X4.47Y-2.37
X4.5462Y-1.2587
X4.6289Y-1.2587
X4.6289Y-1.3689
X6.52Y-5.12
X6.5201Y-5.42
X6.5201Y-5.71
X6.6184Y-5.12
X6.6185Y-5.42
X6.6185Y-5.71
T7
X5.43Y-6.545
X5.53Y-6.545
X5.71Y-6.545
X5.81Y-6.545
T8
X0.95Y-1.0
X0.99Y-6.6825
X1.05Y-1.0
X1.09Y-6.6825
X1.555Y-2.505
X1.555Y-2.605
X1.555Y-2.705
X1.555Y-2.805
X1.555Y-2.905
X1.555Y-3.005
X1.555Y-3.105
X1.555Y-3.205
X1.555Y-3.305
X1.555Y-3.405
X1.8175Y-6.67
X1.9175Y-6.67
X2.0175Y-6.67
X2.39Y-6.12
X2.39Y-6.22
X2.39Y-6.32
X2.39Y-6.42
X2.39Y-6.52
X2.39Y-6.62
X2.5448Y-6.095
X2.6448Y-6.095
X3.64Y-5.5798
X3.64Y-5.6798
X3.9Y-6.42
X4.03Y-6.56
X4.03Y-6.66
X4.13Y-6.56
X4.13Y-6.66
X4.23Y-6.56
X4.23Y-6.66
X4.65Y-5.5925
X4.65Y-5.6925
X4.65Y-5.7925
X4.65Y-5.8925
X4.65Y-5.9925
X4.65Y-6.0925
X4.71Y-5.3125
X4.81Y-5.3125
X4.91Y-5.3125
X4.9307Y-5.58
X4.9307Y-5.68
X4.9725Y-6.2725
X4.995Y-6.55
X5.0725Y-6.2725
X5.095Y-6.55
X5.1114Y-5.58
X5.1114Y-5.68
X5.195Y-6.55
X5.295Y-6.2725
X5.395Y-6.2725
X5.495Y-6.2725
X5.595Y-6.2725
X6.51Y-1.355
X6.51Y-1.455
X6.51Y-1.555
X6.51Y-1.655
X6.51Y-1.755
X6.51Y-1.855
X6.58Y-6.165
X6.58Y-6.265
X6.6525Y-1.3273
X6.6525Y-1.4273
T9
X1.0Y-1.26
X1.0Y-1.36
X1.0Y-1.46
X1.0Y-1.56
X1.0Y-1.66
X1.0Y-1.76
X1.0Y-1.86
X1.0Y-1.96
X1.0Y-2.06
X1.0Y-2.16
X1.0Y-2.26
X1.0Y-2.36
X1.0Y-2.46
X1.0Y-2.56
X1.0Y-2.66
X1.0Y-2.76
X1.0Y-2.86
X1.0Y-2.96
X1.0Y-3.06
X1.0Y-3.16
X1.0Y-3.26
X1.0Y-3.36
X1.0Y-3.46
X1.0Y-3.56
X1.0Y-3.66
X1.0Y-3.76
X1.0Y-3.86
X1.0Y-3.96
X1.0Y-4.06
X1.0Y-4.16
X1.0Y-4.26
X1.0Y-4.66
X1.0Y-4.76
X1.0Y-4.86
X1.0Y-4.96
X1.0Y-5.06
X1.0Y-5.16
X1.0Y-5.26
X1.0Y-5.36
X1.0Y-5.46
X1.0Y-5.56
X1.0Y-5.66
X1.0Y-5.76
X1.0Y-5.86
X1.0Y-5.96
X1.0Y-6.06
X1.0Y-6.16
X1.0Y-6.26
X1.0Y-6.36
X1.2Y-1.26
X1.2Y-1.36
X1.2Y-1.46
X1.2Y-1.56
X1.2Y-1.66
X1.2Y-1.76
X1.2Y-1.86
X1.2Y-1.96
X1.2Y-2.06
X1.2Y-2.16
X1.2Y-2.26
X1.2Y-2.36
X1.2Y-2.46
X1.2Y-2.56
X1.2Y-2.66
X1.2Y-2.76
X1.2Y-2.86
X1.2Y-2.96
X1.2Y-3.06
X1.2Y-3.16
X1.2Y-3.26
X1.2Y-3.36
X1.2Y-3.46
X1.2Y-3.56
X1.2Y-3.66
X1.2Y-3.76
X1.2Y-3.86
X1.2Y-3.96
X1.2Y-4.06
X1.2Y-4.16
X1.2Y-4.26
X1.2Y-4.66
X1.2Y-4.76
X1.2Y-4.86
X1.2Y-4.96
X1.2Y-5.06
X1.2Y-5.16
X1.2Y-5.26
X1.2Y-5.36
X1.2Y-5.46
X1.2Y-5.56
X1.2Y-5.66
X1.2Y-5.76
X1.2Y-5.86
X1.2Y-5.96
X1.2Y-6.06
X1.2Y-6.16
X1.2Y-6.26
X1.2Y-6.36
X1.82Y-1.26
X1.82Y-1.36
X1.82Y-1.46
X1.82Y-1.56
X1.82Y-1.66
X1.82Y-1.76
X1.82Y-1.86
X1.82Y-1.96
X1.82Y-2.06
X1.82Y-2.16
X1.82Y-2.26
X1.82Y-2.36
X1.82Y-2.46
X1.82Y-2.56
X1.82Y-2.66
X1.82Y-2.76
X1.82Y-2.86
X1.82Y-2.96
X1.82Y-3.06
X1.82Y-3.16
X1.82Y-3.26
X1.82Y-3.36
X1.82Y-3.46
X1.82Y-3.56
X1.82Y-3.66
X1.82Y-3.76
X1.82Y-3.86
X1.82Y-3.96
X1.82Y-4.06
X1.82Y-4.16
X1.82Y-4.26
X1.82Y-4.66
X1.82Y-4.76
X1.82Y-4.86
X1.82Y-4.96
X1.82Y-5.06
X1.82Y-5.16
X1.82Y-5.26
X1.82Y-5.36
X1.82Y-5.46
X1.82Y-5.56
X1.82Y-5.66
X1.82Y-5.76
X1.82Y-5.86
X1.82Y-5.96
X1.82Y-6.06
X1.82Y-6.16
X1.82Y-6.26
X1.82Y-6.36
X2.02Y-1.26
X2.02Y-1.36
X2.02Y-1.46
X2.02Y-1.56
X2.02Y-1.66
X2.02Y-1.76
X2.02Y-1.86
X2.02Y-1.96
X2.02Y-2.06
X2.02Y-2.16
X2.02Y-2.26
X2.02Y-2.36
X2.02Y-2.46
X2.02Y-2.56
X2.02Y-2.66
X2.02Y-2.76
X2.02Y-2.86
X2.02Y-2.96
X2.02Y-3.06
X2.02Y-3.16
X2.02Y-3.26
X2.02Y-3.36
X2.02Y-3.46
X2.02Y-3.56
X2.02Y-3.66
X2.02Y-3.76
X2.02Y-3.86
X2.02Y-3.96
X2.02Y-4.06
X2.02Y-4.16
X2.02Y-4.26
X2.02Y-4.66
X2.02Y-4.76
X2.02Y-4.86
X2.02Y-4.96
X2.02Y-5.06
X2.02Y-5.16
X2.02Y-5.26
X2.02Y-5.36
X2.02Y-5.46
X2.02Y-5.56
X2.02Y-5.66
X2.02Y-5.76
X2.02Y-5.86
X2.02Y-5.96
X2.02Y-6.06
X2.02Y-6.16
X2.02Y-6.26
X2.02Y-6.36
T10
X4.5241Y-6.4328
X4.5241Y-6.61
X4.78Y-6.4328
X4.78Y-6.61
T11
X6.0435Y-5.1225
X6.0435Y-5.2879
X6.0435Y-5.4532
X6.0435Y-5.6186
X6.0435Y-5.7839
X6.0435Y-5.9493
X6.0435Y-6.1146
X6.0435Y-6.28
X6.0435Y-6.4454
X6.0435Y-6.6107
X6.26Y-5.1225
X6.26Y-5.2879
X6.26Y-5.4532
X6.26Y-5.6186
X6.26Y-5.7839
X6.26Y-5.9493
X6.26Y-6.1146
X6.26Y-6.28
X6.26Y-6.4454
X6.26Y-6.6107
T8
G00X4.2253Y-1.176
M15
G01X4.2253Y-1.117
M16
G05
G00X4.5344Y-1.115
M15
G01X4.4556Y-1.115
M16
G05
G00X4.7647Y-1.176
M15
G01X4.7647Y-1.117
M16
G05
M30
